<?xml version="1.0" encoding="UTF-8"?>
<svg id="Layer_2" data-name="Layer 2" xmlns="http://www.w3.org/2000/svg" viewBox="0 0 9.53 7.63">
  <defs>
    <style>
      .cls-1 {
        fill: #fff;
        fill-rule: evenodd;
      }
    </style>
  </defs>
  <g id="Calque_1" data-name="Calque 1">
    <path class="cls-1" d="M1.89,0h5.75c.21,0,.39,0,.54.01.16.01.31.03.47.1.35.15.63.42.77.77.06.16.09.31.1.47.01.15.01.33.01.54v3.84c0,.21,0,.39-.01.54-.01.16-.03.31-.1.47-.15.35-.42.63-.77.77-.16.06-.31.09-.47.1-.15.01-.33.01-.54.01H1.89c-.21,0-.39,0-.54-.01-.16-.01-.31-.03-.47-.1-.35-.15-.63-.42-.77-.77-.06-.16-.09-.31-.1-.47C0,6.12,0,5.94,0,5.73V1.89c0-.21,0-.39.01-.54.01-.16.03-.31.1-.47C.25.53.53.25.88.11c.16-.06.31-.09.47-.1C1.5,0,1.68,0,1.89,0ZM1.1,1.09c.17-.2.47-.22.67-.04l2.68,2.34c.18.16.45.16.63,0l2.68-2.34c.2-.17.5-.15.67.04.17.2.15.5-.04.67l-2.68,2.34c-.54.47-1.34.47-1.88,0L1.15,1.76c-.2-.17-.22-.47-.04-.67Z"/>
  </g>
</svg>