<?xml version="1.0" encoding="UTF-8"?>
<svg id="Layer_2" data-name="Layer 2" xmlns="http://www.w3.org/2000/svg" viewBox="0 0 15.24 11.32">
  <defs>
    <style>
      .cls-1 {
        fill: #fff;
      }
    </style>
  </defs>
  <g id="Calque_1" data-name="Calque 1">
    <path class="cls-1" d="M14.82,1.95c-.14-.78-.81-1.34-1.59-1.52-1.17-.25-3.32-.42-5.66-.42S3.04.18,1.87.42c-.78.18-1.45.71-1.59,1.52-.14.88-.28,2.12-.28,3.71s.14,2.83.32,3.71c.14.78.81,1.34,1.59,1.52,1.24.25,3.36.42,5.69.42s4.46-.18,5.69-.42c.78-.18,1.45-.71,1.59-1.52.14-.88.32-2.16.35-3.71-.07-1.59-.25-2.83-.43-3.71ZM5.66,8.13V3.18l4.31,2.48-4.31,2.48Z"/>
  </g>
</svg>