<?xml version="1.0" encoding="UTF-8"?>
<svg id="Layer_2" data-name="Layer 2" xmlns="http://www.w3.org/2000/svg" viewBox="0 0 10.62 10.03">
  <defs>
    <style>
      .cls-1 {
        fill: #fff;
      }
    </style>
  </defs>
  <g id="Calque_1" data-name="Calque 1">
    <path class="cls-1" d="M7.41,6.43l-.27.27s-.64.64-2.38-1.1c-1.74-1.73-1.1-2.37-1.1-2.37l.17-.17c.42-.41.46-1.08.09-1.57l-.74-.99C2.72-.09,1.85-.17,1.33.34l-.93.92C.15,1.51-.02,1.84,0,2.21c.05.94.48,2.95,2.84,5.3,2.51,2.49,4.86,2.59,5.82,2.5.3-.03.57-.18.78-.4l.84-.83c.57-.56.41-1.53-.32-1.92l-1.13-.61c-.48-.26-1.05-.18-1.43.19Z"/>
  </g>
</svg>