<?xml version="1.0" encoding="UTF-8"?>
<svg id="Layer_2" data-name="Layer 2" xmlns="http://www.w3.org/2000/svg" viewBox="0 0 9.83 11.32">
  <defs>
    <style>
      .cls-1 {
        fill: #fff;
      }
    </style>
  </defs>
  <g id="Calque_1" data-name="Calque 1">
    <path class="cls-1" d="M5.17,0c.62,0,1.23,0,1.84,0,.02.77.33,1.46.83,1.97h0c.53.48,1.23.79,1.99.84h.01v1.9c-.72-.02-1.4-.18-2.01-.47h.03c-.3-.13-.55-.28-.78-.44h.02c0,1.39,0,2.77,0,4.14-.04.7-.27,1.34-.64,1.87h0c-.62.88-1.63,1.47-2.78,1.5h0s-.1,0-.16,0c-.65,0-1.26-.18-1.78-.5h.02C.78,10.26.13,9.28.01,8.15v-.02c-.01-.24-.02-.47,0-.7.18-1.8,1.7-3.2,3.53-3.2.21,0,.41.02.61.05h-.02c0,.69-.02,1.39-.02,2.09-.16-.06-.34-.09-.54-.09-.71,0-1.3.45-1.53,1.08h0c-.05.17-.08.36-.08.55,0,.08,0,.15.01.23h0c.13.76.79,1.35,1.59,1.35.02,0,.05,0,.07,0h0c.55-.02,1.03-.31,1.3-.75h0c.1-.15.17-.32.19-.5h0c.05-.85.03-1.69.03-2.53,0-1.9,0-3.8,0-5.69h0Z"/>
  </g>
</svg>