<?xml version="1.0" encoding="UTF-8"?>
<svg id="Layer_2" data-name="Layer 2" xmlns="http://www.w3.org/2000/svg" viewBox="0 0 10.36 10.36">
  <defs>
    <style>
      .cls-1 {
        fill: #fff;
      }
    </style>
  </defs>
  <g id="Calque_1" data-name="Calque 1">
    <path class="cls-1" d="M5.18,0C2.32,0,0,2.32,0,5.18c0,2.86,2.32,5.18,5.18,5.18,2.86,0,5.18-2.32,5.18-5.18,0-2.86-2.32-5.18-5.18-5.18ZM1.97,1.97c.47-.47,1.05-.84,1.69-1.07-.31.37-.56.85-.76,1.4h-1.22c.09-.12.19-.23.3-.33ZM1.33,2.79h1.42c-.18.65-.29,1.37-.31,2.14H.65c.04-.79.28-1.52.67-2.14ZM1.33,7.57c-.39-.63-.63-1.36-.67-2.14h1.78c.02.77.13,1.5.31,2.14h-1.41ZM1.97,8.38c-.11-.11-.21-.22-.3-.33h1.23c.09.24.18.46.29.67.14.27.3.52.47.73-.64-.23-1.22-.59-1.69-1.07ZM4.94,9.7c-.08,0-.15,0-.23-.02-.12-.05-.24-.13-.35-.22-.36-.29-.69-.78-.94-1.41h1.52v1.65h0ZM4.94,7.57h-1.69c-.19-.63-.31-1.36-.33-2.14h2.02v2.14h0ZM4.94,4.94h-2.02c.02-.78.14-1.51.33-2.14h1.69v2.14h0ZM4.94,2.31h-1.52c.06-.16.13-.31.2-.45.22-.42.47-.75.74-.96.12-.1.23-.17.35-.22.07,0,.15-.01.23-.02v1.65h0ZM9.03,2.79c.39.63.63,1.36.67,2.14h-1.78c-.02-.77-.13-1.5-.31-2.14h1.41ZM8.38,1.97c.11.11.21.22.3.33h-1.23c-.09-.24-.18-.46-.29-.67-.14-.27-.3-.52-.47-.73.64.23,1.22.59,1.69,1.07ZM5.42.65c.08,0,.15,0,.23.02.12.05.24.13.35.22.36.29.69.78.94,1.41h-1.52V.65ZM5.42,2.79h1.69c.19.63.31,1.36.33,2.14h-2.02v-2.14ZM5.42,5.42h2.02c-.02.78-.14,1.51-.33,2.14h-1.69v-2.14ZM6,9.46c-.12.1-.23.17-.35.22-.07,0-.15.01-.23.02v-1.65h1.52c-.06.16-.13.31-.2.45-.22.42-.47.75-.74.96ZM8.38,8.38c-.47.47-1.05.84-1.69,1.07.31-.37.56-.85.76-1.4h1.22c-.09.12-.19.23-.3.33ZM9.03,7.57h-1.42c.18-.65.29-1.37.31-2.14h1.78c-.04.79-.28,1.52-.67,2.14Z"/>
  </g>
</svg>