<?xml version="1.0" encoding="UTF-8"?>
<svg id="Layer_2" data-name="Layer 2" xmlns="http://www.w3.org/2000/svg" viewBox="0 0 11.82 11.29">
  <defs>
    <style>
      .cls-1 {
        fill: #fff;
        fill-rule: evenodd;
      }
    </style>
  </defs>
  <g id="Calque_1" data-name="Calque 1">
    <g id="_7935ec95c421cee6d86eb22ecd125aef" data-name="7935ec95c421cee6d86eb22ecd125aef">
      <path class="cls-1" d="M2.68,11.29V3.67H.15v7.62h2.53ZM1.42,2.63c.88,0,1.43-.59,1.43-1.32-.02-.75-.55-1.32-1.42-1.32C.57,0,0,.57,0,1.32s.55,1.32,1.4,1.32h.02ZM4.08,11.29s.03-6.91,0-7.62h2.53v1.11h-.02c.33-.52.93-1.28,2.3-1.28,1.67,0,2.92,1.09,2.92,3.43v4.37h-2.53v-4.08c0-1.02-.37-1.72-1.28-1.72-.7,0-1.12.47-1.3.93-.07.16-.08.39-.08.62v4.26h-2.53Z"/>
    </g>
  </g>
</svg>