<?xml version="1.0" encoding="UTF-8"?>
<svg id="Layer_2" data-name="Layer 2" xmlns="http://www.w3.org/2000/svg" viewBox="0 0 11.29 11.29">
  <defs>
    <style>
      .cls-1 {
        fill: #fff;
      }
    </style>
  </defs>
  <g id="Calque_1" data-name="Calque 1">
    <path class="cls-1" d="M3.14,0C1.41,0,0,1.41,0,3.14v5.02c0,1.73,1.41,3.14,3.14,3.14h5.02c1.73,0,3.14-1.41,3.14-3.14V3.14c0-1.73-1.41-3.14-3.14-3.14H3.14ZM3.14,1.25h5.02c1.05,0,1.88.84,1.88,1.88v5.02c0,1.05-.84,1.88-1.88,1.88H3.14c-1.05,0-1.88-.84-1.88-1.88V3.14c0-1.05.84-1.88,1.88-1.88ZM8.78,1.88c-.35,0-.63.28-.63.63s.28.63.63.63.63-.28.63-.63-.28-.63-.63-.63ZM5.65,2.51c-.99,0-1.82.4-2.35,1-.53.6-.79,1.38-.79,2.14s.25,1.54.79,2.14c.53.6,1.36,1,2.35,1s1.82-.4,2.35-1c.53-.6.79-1.38.79-2.14s-.25-1.54-.79-2.14c-.53-.6-1.36-1-2.35-1ZM5.65,3.76c.68,0,1.11.23,1.41.57s.47.82.47,1.31-.17.97-.47,1.31c-.3.34-.73.57-1.41.57s-1.11-.23-1.41-.57c-.3-.34-.47-.82-.47-1.31s.17-.97.47-1.31.73-.57,1.41-.57Z"/>
  </g>
</svg>